<?xml version="1.0" ?><svg xmlns="http://www.w3.org/2000/svg" xmlns:xlink="http://www.w3.org/1999/xlink" version="1.1" viewBox="0 0 512 512" style="enable-background:new 0 0 512 512;" xml:space="preserve"><g id="_x32_8_x2C__Numbered_x2C__priority_x2C__chart_x2C__infographic_x2C__graphic_x2C__analytics"><g><g><path style="fill:#5596FB;" d="M412.707,248.239l-70.4-57.2c-2.992-2.434-7.12-2.928-10.604-1.269     c-3.483,1.658-5.702,5.172-5.702,9.029v16.4H138.915c-13.37-20.572-36.537-34.2-62.914-34.2c-41.355,0-75,33.645-75,75     s33.645,75,75,75c25.569,0,49.152-12.965,62.927-34.2h187.073v16.4c0,3.857,2.219,7.371,5.702,9.029     c3.523,1.676,7.645,1.137,10.604-1.269l70.4-57.2C417.625,259.766,417.635,252.242,412.707,248.239z M76.001,311     c-30.327,0-55-24.673-55-55s24.673-55,55-55c30.684,0,55.017,24.904,54.997,55.034C130.977,286.511,106.233,311,76.001,311z      M346.001,292.19V286.8c0-5.522-4.478-10-10-10H148.059c1.939-6.736,2.942-13.75,2.942-20.8c0-7.219-1.042-14.192-2.947-20.8     h187.947c5.522,0,10-4.478,10-10v-5.391L390.543,256L346.001,292.19z"/></g><g><path style="fill:#283954;" d="M507.307,68.239l-70.4-57.2c-2.992-2.433-7.119-2.927-10.604-1.269     c-3.483,1.658-5.702,5.172-5.702,9.029v16.4H138.928C125.154,13.965,101.57,1,76.001,1c-41.355,0-75,33.645-75,75     s33.645,75,75,75c25.569,0,49.152-12.965,62.927-34.2h281.673v16.4c0,3.857,2.219,7.371,5.702,9.029     c3.523,1.676,7.645,1.137,10.604-1.269l70.4-57.2C512.225,79.766,512.234,72.242,507.307,68.239z M76.001,131     c-30.327,0-55-24.673-55-55s24.673-55,55-55c30.21,0,54.999,24.487,54.997,55C130.996,106.602,106.131,131,76.001,131z      M440.601,112.19V106.8c0-5.522-4.478-10-10-10H148.065c3.938-13.67,3.873-28.128-0.003-41.6h282.539c5.522,0,10-4.478,10-10     V39.81L485.143,76L440.601,112.19z"/><path style="fill:#283954;" d="M322.307,428.239l-70.4-57.2c-2.993-2.434-7.117-2.927-10.604-1.269     c-3.483,1.658-5.702,5.172-5.702,9.029v16.4h-96.686c-13.37-20.572-36.537-34.2-62.914-34.2c-41.355,0-75,33.645-75,75     s33.645,75,75,75c25.569,0,49.152-12.965,62.927-34.2h96.673v16.4c0,3.857,2.219,7.371,5.702,9.029     c3.523,1.676,7.645,1.137,10.604-1.269l70.4-57.2C327.225,439.766,327.234,432.242,322.307,428.239z M76.001,491     c-30.327,0-55-24.673-55-55s24.673-55,55-55c30.21,0,54.999,24.487,54.997,55C130.996,466.602,106.131,491,76.001,491z      M255.601,472.19V466.8c0-5.522-4.478-10-10-10h-97.542c3.844-13.356,4.002-27.703-0.005-41.6h97.546c5.522,0,10-4.478,10-10     v-5.391L300.143,436L255.601,472.19z"/></g></g></g><g id="Layer_1"/></svg>